{
	"patcher" : 	{
		"fileversion" : 1,
		"appversion" : 		{
			"major" : 8,
			"minor" : 1,
			"revision" : 1,
			"architecture" : "x64",
			"modernui" : 1
		}
,
		"classnamespace" : "box",
		"rect" : [ 67.0, 110.0, 931.0, 585.0 ],
		"bglocked" : 0,
		"openinpresentation" : 0,
		"default_fontsize" : 12.0,
		"default_fontface" : 0,
		"default_fontname" : "Arial",
		"gridonopen" : 2,
		"gridsize" : [ 15.0, 15.0 ],
		"gridsnaponopen" : 2,
		"objectsnaponopen" : 1,
		"statusbarvisible" : 2,
		"toolbarvisible" : 1,
		"lefttoolbarpinned" : 0,
		"toptoolbarpinned" : 0,
		"righttoolbarpinned" : 0,
		"bottomtoolbarpinned" : 0,
		"toolbars_unpinned_last_save" : 0,
		"tallnewobj" : 0,
		"boxanimatetime" : 200,
		"enablehscroll" : 1,
		"enablevscroll" : 1,
		"devicewidth" : 0.0,
		"description" : "",
		"digest" : "",
		"tags" : "",
		"style" : "",
		"subpatcher_template" : "snap_to_grid",
		"boxes" : [ 			{
				"box" : 				{
					"color" : [ 0.945098039215686, 0.913725490196078, 0.407843137254902, 1.0 ],
					"id" : "obj-29",
					"maxclass" : "newobj",
					"numinlets" : 1,
					"numoutlets" : 0,
					"patching_rect" : [ 15.0, 540.0, 32.0, 22.0 ],
					"text" : "print"
				}

			}
, 			{
				"box" : 				{
					"fontface" : 1,
					"id" : "obj-26",
					"linecount" : 11,
					"maxclass" : "comment",
					"numinlets" : 1,
					"numoutlets" : 0,
					"patching_rect" : [ 525.0, 30.0, 373.0, 158.0 ],
					"text" : "Assignment: \n\n1) We have not yet looked at the objects bordered in red. Research them and write a brief description of what they all do. \n\n2) Write a brief description of how the patch works.\n\n3) Sometimes, the patch creates duplicate pitches (e.g. two F#'s) in the row, breaking the rules of a 12 tone row. Where do you think this is coming from and why? \n(HINT: Use the included [print] object to test your theory)"
				}

			}
, 			{
				"box" : 				{
					"id" : "obj-23",
					"linecount" : 2,
					"maxclass" : "comment",
					"numinlets" : 1,
					"numoutlets" : 0,
					"patching_rect" : [ 307.0, 129.0, 165.0, 34.0 ],
					"text" : "Transpose - sets the pitch of the lowest note in the row."
				}

			}
, 			{
				"box" : 				{
					"fontface" : 1,
					"fontsize" : 24.0,
					"id" : "obj-14",
					"maxclass" : "comment",
					"numinlets" : 1,
					"numoutlets" : 0,
					"patching_rect" : [ 15.0, 15.0, 276.0, 34.0 ],
					"text" : "12 Tone Row Generator"
				}

			}
, 			{
				"box" : 				{
					"id" : "obj-30",
					"maxclass" : "comment",
					"numinlets" : 1,
					"numoutlets" : 0,
					"patching_rect" : [ 270.0, 45.0, 81.0, 20.0 ],
					"text" : "Click to reset!"
				}

			}
, 			{
				"box" : 				{
					"color" : [ 0.996078431372549, 0.0, 0.0, 1.0 ],
					"id" : "obj-27",
					"maxclass" : "newobj",
					"numinlets" : 2,
					"numoutlets" : 1,
					"outlettype" : [ "int" ],
					"patching_rect" : [ 240.0, 240.0, 29.5, 22.0 ],
					"text" : "i 60"
				}

			}
, 			{
				"box" : 				{
					"id" : "obj-22",
					"maxclass" : "button",
					"numinlets" : 1,
					"numoutlets" : 1,
					"outlettype" : [ "bang" ],
					"parameter_enable" : 0,
					"patching_rect" : [ 240.0, 45.0, 24.0, 24.0 ]
				}

			}
, 			{
				"box" : 				{
					"id" : "obj-20",
					"maxclass" : "comment",
					"numinlets" : 1,
					"numoutlets" : 0,
					"patching_rect" : [ 45.0, 45.0, 78.0, 20.0 ],
					"text" : "Click to start!"
				}

			}
, 			{
				"box" : 				{
					"color" : [ 0.996078431372549, 0.0, 0.0, 1.0 ],
					"id" : "obj-18",
					"maxclass" : "newobj",
					"numinlets" : 2,
					"numoutlets" : 1,
					"outlettype" : [ "bang" ],
					"patching_rect" : [ 15.0, 75.0, 41.0, 22.0 ],
					"text" : "del 10"
				}

			}
, 			{
				"box" : 				{
					"id" : "obj-34",
					"maxclass" : "number",
					"numinlets" : 1,
					"numoutlets" : 2,
					"outlettype" : [ "", "bang" ],
					"parameter_enable" : 0,
					"patching_rect" : [ 255.0, 135.0, 50.0, 22.0 ]
				}

			}
, 			{
				"box" : 				{
					"color" : [ 0.996078431372549, 0.0, 0.0, 1.0 ],
					"id" : "obj-32",
					"maxclass" : "newobj",
					"numinlets" : 2,
					"numoutlets" : 3,
					"outlettype" : [ "bang", "bang", "int" ],
					"patching_rect" : [ 15.0, 106.0, 43.0, 22.0 ],
					"text" : "Uzi 12"
				}

			}
, 			{
				"box" : 				{
					"id" : "obj-31",
					"maxclass" : "button",
					"numinlets" : 1,
					"numoutlets" : 1,
					"outlettype" : [ "bang" ],
					"parameter_enable" : 0,
					"patching_rect" : [ 15.0, 45.0, 24.0, 24.0 ]
				}

			}
, 			{
				"box" : 				{
					"id" : "obj-28",
					"maxclass" : "newobj",
					"numinlets" : 2,
					"numoutlets" : 1,
					"outlettype" : [ "int" ],
					"patching_rect" : [ 165.0, 180.0, 32.0, 22.0 ],
					"text" : "+ 60"
				}

			}
, 			{
				"box" : 				{
					"color" : [ 0.996078431372549, 0.0, 0.0, 1.0 ],
					"id" : "obj-25",
					"maxclass" : "newobj",
					"numinlets" : 2,
					"numoutlets" : 1,
					"outlettype" : [ "" ],
					"patching_rect" : [ 15.0, 210.0, 29.5, 22.0 ],
					"text" : "join"
				}

			}
, 			{
				"box" : 				{
					"id" : "obj-19",
					"maxclass" : "message",
					"numinlets" : 2,
					"numoutlets" : 1,
					"outlettype" : [ "" ],
					"patching_rect" : [ 165.0, 105.0, 35.0, 22.0 ],
					"text" : "clear"
				}

			}
, 			{
				"box" : 				{
					"color" : [ 0.996078431372549, 0.0, 0.0, 1.0 ],
					"id" : "obj-17",
					"maxclass" : "newobj",
					"numinlets" : 5,
					"numoutlets" : 4,
					"outlettype" : [ "int", "", "", "int" ],
					"patching_rect" : [ 15.0, 150.0, 84.0, 22.0 ],
					"text" : "counter 0 0 11"
				}

			}
, 			{
				"box" : 				{
					"color" : [ 0.996078431372549, 0.0, 0.0, 1.0 ],
					"id" : "obj-16",
					"maxclass" : "newobj",
					"numinlets" : 13,
					"numoutlets" : 13,
					"outlettype" : [ "", "", "", "", "", "", "", "", "", "", "", "", "" ],
					"patching_rect" : [ 15.0, 240.0, 168.0, 22.0 ],
					"text" : "route 0 1 2 3 4 5 6 7 8 9 10 11"
				}

			}
, 			{
				"box" : 				{
					"id" : "obj-15",
					"maxclass" : "newobj",
					"numinlets" : 2,
					"numoutlets" : 2,
					"outlettype" : [ "int", "bang" ],
					"patching_rect" : [ 165.0, 150.0, 43.0, 22.0 ],
					"text" : "urn 12"
				}

			}
, 			{
				"box" : 				{
					"id" : "obj-7",
					"maxclass" : "nslider",
					"numinlets" : 2,
					"numoutlets" : 2,
					"outlettype" : [ "int", "int" ],
					"parameter_enable" : 0,
					"patching_rect" : [ 840.0, 315.0, 75.0, 198.0 ]
				}

			}
, 			{
				"box" : 				{
					"id" : "obj-8",
					"maxclass" : "nslider",
					"numinlets" : 2,
					"numoutlets" : 2,
					"outlettype" : [ "int", "int" ],
					"parameter_enable" : 0,
					"patching_rect" : [ 765.0, 315.0, 75.0, 198.0 ]
				}

			}
, 			{
				"box" : 				{
					"id" : "obj-9",
					"maxclass" : "nslider",
					"numinlets" : 2,
					"numoutlets" : 2,
					"outlettype" : [ "int", "int" ],
					"parameter_enable" : 0,
					"patching_rect" : [ 690.0, 315.0, 75.0, 198.0 ]
				}

			}
, 			{
				"box" : 				{
					"id" : "obj-10",
					"maxclass" : "nslider",
					"numinlets" : 2,
					"numoutlets" : 2,
					"outlettype" : [ "int", "int" ],
					"parameter_enable" : 0,
					"patching_rect" : [ 615.0, 315.0, 75.0, 198.0 ]
				}

			}
, 			{
				"box" : 				{
					"id" : "obj-11",
					"maxclass" : "nslider",
					"numinlets" : 2,
					"numoutlets" : 2,
					"outlettype" : [ "int", "int" ],
					"parameter_enable" : 0,
					"patching_rect" : [ 540.0, 315.0, 75.0, 198.0 ]
				}

			}
, 			{
				"box" : 				{
					"id" : "obj-12",
					"maxclass" : "nslider",
					"numinlets" : 2,
					"numoutlets" : 2,
					"outlettype" : [ "int", "int" ],
					"parameter_enable" : 0,
					"patching_rect" : [ 465.0, 315.0, 75.0, 198.0 ]
				}

			}
, 			{
				"box" : 				{
					"id" : "obj-5",
					"maxclass" : "nslider",
					"numinlets" : 2,
					"numoutlets" : 2,
					"outlettype" : [ "int", "int" ],
					"parameter_enable" : 0,
					"patching_rect" : [ 390.0, 315.0, 75.0, 198.0 ]
				}

			}
, 			{
				"box" : 				{
					"id" : "obj-6",
					"maxclass" : "nslider",
					"numinlets" : 2,
					"numoutlets" : 2,
					"outlettype" : [ "int", "int" ],
					"parameter_enable" : 0,
					"patching_rect" : [ 315.0, 315.0, 75.0, 198.0 ]
				}

			}
, 			{
				"box" : 				{
					"id" : "obj-3",
					"maxclass" : "nslider",
					"numinlets" : 2,
					"numoutlets" : 2,
					"outlettype" : [ "int", "int" ],
					"parameter_enable" : 0,
					"patching_rect" : [ 240.0, 315.0, 75.0, 198.0 ]
				}

			}
, 			{
				"box" : 				{
					"id" : "obj-4",
					"maxclass" : "nslider",
					"numinlets" : 2,
					"numoutlets" : 2,
					"outlettype" : [ "int", "int" ],
					"parameter_enable" : 0,
					"patching_rect" : [ 165.0, 315.0, 75.0, 198.0 ]
				}

			}
, 			{
				"box" : 				{
					"id" : "obj-2",
					"maxclass" : "nslider",
					"numinlets" : 2,
					"numoutlets" : 2,
					"outlettype" : [ "int", "int" ],
					"parameter_enable" : 0,
					"patching_rect" : [ 90.0, 315.0, 75.0, 198.0 ]
				}

			}
, 			{
				"box" : 				{
					"id" : "obj-1",
					"maxclass" : "nslider",
					"numinlets" : 2,
					"numoutlets" : 2,
					"outlettype" : [ "int", "int" ],
					"parameter_enable" : 0,
					"patching_rect" : [ 15.0, 315.0, 75.0, 198.0 ]
				}

			}
 ],
		"lines" : [ 			{
				"patchline" : 				{
					"destination" : [ "obj-28", 0 ],
					"source" : [ "obj-15", 0 ]
				}

			}
, 			{
				"patchline" : 				{
					"color" : [ 0.317647058823529, 0.709803921568627, 0.32156862745098, 1.0 ],
					"destination" : [ "obj-1", 0 ],
					"midpoints" : [ 24.5, 288.0, 24.5, 288.0 ],
					"source" : [ "obj-16", 0 ]
				}

			}
, 			{
				"patchline" : 				{
					"color" : [ 0.317647058823529, 0.709803921568627, 0.32156862745098, 1.0 ],
					"destination" : [ "obj-10", 0 ],
					"midpoints" : [ 123.833333333333329, 288.0, 624.5, 288.0 ],
					"source" : [ "obj-16", 8 ]
				}

			}
, 			{
				"patchline" : 				{
					"color" : [ 0.317647058823529, 0.709803921568627, 0.32156862745098, 1.0 ],
					"destination" : [ "obj-11", 0 ],
					"midpoints" : [ 111.416666666666671, 288.0, 549.5, 288.0 ],
					"source" : [ "obj-16", 7 ]
				}

			}
, 			{
				"patchline" : 				{
					"color" : [ 0.317647058823529, 0.709803921568627, 0.32156862745098, 1.0 ],
					"destination" : [ "obj-12", 0 ],
					"midpoints" : [ 99.0, 288.0, 474.5, 288.0 ],
					"source" : [ "obj-16", 6 ]
				}

			}
, 			{
				"patchline" : 				{
					"color" : [ 0.317647058823529, 0.709803921568627, 0.32156862745098, 1.0 ],
					"destination" : [ "obj-2", 0 ],
					"midpoints" : [ 36.916666666666664, 288.0, 99.5, 288.0 ],
					"source" : [ "obj-16", 1 ]
				}

			}
, 			{
				"patchline" : 				{
					"color" : [ 0.317647058823529, 0.709803921568627, 0.32156862745098, 1.0 ],
					"destination" : [ "obj-3", 0 ],
					"midpoints" : [ 61.75, 288.0, 249.5, 288.0 ],
					"source" : [ "obj-16", 3 ]
				}

			}
, 			{
				"patchline" : 				{
					"color" : [ 0.317647058823529, 0.709803921568627, 0.32156862745098, 1.0 ],
					"destination" : [ "obj-4", 0 ],
					"midpoints" : [ 49.333333333333329, 288.0, 174.5, 288.0 ],
					"source" : [ "obj-16", 2 ]
				}

			}
, 			{
				"patchline" : 				{
					"color" : [ 0.317647058823529, 0.709803921568627, 0.32156862745098, 1.0 ],
					"destination" : [ "obj-5", 0 ],
					"midpoints" : [ 86.583333333333343, 288.0, 399.5, 288.0 ],
					"source" : [ "obj-16", 5 ]
				}

			}
, 			{
				"patchline" : 				{
					"color" : [ 0.317647058823529, 0.709803921568627, 0.32156862745098, 1.0 ],
					"destination" : [ "obj-6", 0 ],
					"midpoints" : [ 74.166666666666657, 288.0, 324.5, 288.0 ],
					"source" : [ "obj-16", 4 ]
				}

			}
, 			{
				"patchline" : 				{
					"color" : [ 0.317647058823529, 0.709803921568627, 0.32156862745098, 1.0 ],
					"destination" : [ "obj-7", 0 ],
					"midpoints" : [ 161.083333333333343, 288.0, 849.5, 288.0 ],
					"source" : [ "obj-16", 11 ]
				}

			}
, 			{
				"patchline" : 				{
					"color" : [ 0.317647058823529, 0.709803921568627, 0.32156862745098, 1.0 ],
					"destination" : [ "obj-8", 0 ],
					"midpoints" : [ 148.666666666666686, 288.0, 774.5, 288.0 ],
					"source" : [ "obj-16", 10 ]
				}

			}
, 			{
				"patchline" : 				{
					"color" : [ 0.317647058823529, 0.709803921568627, 0.32156862745098, 1.0 ],
					"destination" : [ "obj-9", 0 ],
					"midpoints" : [ 136.25, 288.0, 699.5, 288.0 ],
					"source" : [ "obj-16", 9 ]
				}

			}
, 			{
				"patchline" : 				{
					"destination" : [ "obj-19", 0 ],
					"midpoints" : [ 67.833333333333343, 182.0, 121.166666666666671, 182.0, 121.166666666666671, 94.0, 174.5, 94.0 ],
					"source" : [ "obj-17", 2 ]
				}

			}
, 			{
				"patchline" : 				{
					"destination" : [ "obj-25", 0 ],
					"source" : [ "obj-17", 0 ]
				}

			}
, 			{
				"patchline" : 				{
					"destination" : [ "obj-32", 0 ],
					"source" : [ "obj-18", 0 ]
				}

			}
, 			{
				"patchline" : 				{
					"destination" : [ "obj-15", 0 ],
					"source" : [ "obj-19", 0 ]
				}

			}
, 			{
				"patchline" : 				{
					"destination" : [ "obj-19", 0 ],
					"order" : 1,
					"source" : [ "obj-22", 0 ]
				}

			}
, 			{
				"patchline" : 				{
					"destination" : [ "obj-27", 0 ],
					"order" : 0,
					"source" : [ "obj-22", 0 ]
				}

			}
, 			{
				"patchline" : 				{
					"destination" : [ "obj-16", 0 ],
					"source" : [ "obj-25", 0 ]
				}

			}
, 			{
				"patchline" : 				{
					"color" : [ 0.074509803921569, 0.101960784313725, 0.376470588235294, 1.0 ],
					"destination" : [ "obj-1", 0 ],
					"midpoints" : [ 249.5, 273.0, 24.5, 273.0 ],
					"order" : 11,
					"source" : [ "obj-27", 0 ]
				}

			}
, 			{
				"patchline" : 				{
					"color" : [ 0.074509803921569, 0.101960784313725, 0.376470588235294, 1.0 ],
					"destination" : [ "obj-10", 0 ],
					"midpoints" : [ 249.5, 273.0, 624.5, 273.0 ],
					"order" : 3,
					"source" : [ "obj-27", 0 ]
				}

			}
, 			{
				"patchline" : 				{
					"color" : [ 0.074509803921569, 0.101960784313725, 0.376470588235294, 1.0 ],
					"destination" : [ "obj-11", 0 ],
					"midpoints" : [ 249.5, 273.0, 549.5, 273.0 ],
					"order" : 4,
					"source" : [ "obj-27", 0 ]
				}

			}
, 			{
				"patchline" : 				{
					"color" : [ 0.074509803921569, 0.101960784313725, 0.376470588235294, 1.0 ],
					"destination" : [ "obj-12", 0 ],
					"midpoints" : [ 249.5, 273.0, 474.5, 273.0 ],
					"order" : 5,
					"source" : [ "obj-27", 0 ]
				}

			}
, 			{
				"patchline" : 				{
					"color" : [ 0.074509803921569, 0.101960784313725, 0.376470588235294, 1.0 ],
					"destination" : [ "obj-2", 0 ],
					"midpoints" : [ 249.5, 273.0, 99.5, 273.0 ],
					"order" : 10,
					"source" : [ "obj-27", 0 ]
				}

			}
, 			{
				"patchline" : 				{
					"color" : [ 0.074509803921569, 0.101960784313725, 0.376470588235294, 1.0 ],
					"destination" : [ "obj-3", 0 ],
					"midpoints" : [ 249.5, 273.0, 249.5, 273.0 ],
					"order" : 8,
					"source" : [ "obj-27", 0 ]
				}

			}
, 			{
				"patchline" : 				{
					"color" : [ 0.074509803921569, 0.101960784313725, 0.376470588235294, 1.0 ],
					"destination" : [ "obj-4", 0 ],
					"midpoints" : [ 249.5, 273.0, 174.5, 273.0 ],
					"order" : 9,
					"source" : [ "obj-27", 0 ]
				}

			}
, 			{
				"patchline" : 				{
					"color" : [ 0.074509803921569, 0.101960784313725, 0.376470588235294, 1.0 ],
					"destination" : [ "obj-5", 0 ],
					"midpoints" : [ 249.5, 273.0, 399.5, 273.0 ],
					"order" : 6,
					"source" : [ "obj-27", 0 ]
				}

			}
, 			{
				"patchline" : 				{
					"color" : [ 0.074509803921569, 0.101960784313725, 0.376470588235294, 1.0 ],
					"destination" : [ "obj-6", 0 ],
					"midpoints" : [ 249.5, 273.0, 324.5, 273.0 ],
					"order" : 7,
					"source" : [ "obj-27", 0 ]
				}

			}
, 			{
				"patchline" : 				{
					"color" : [ 0.074509803921569, 0.101960784313725, 0.376470588235294, 1.0 ],
					"destination" : [ "obj-7", 0 ],
					"midpoints" : [ 249.5, 273.0, 849.5, 273.0 ],
					"order" : 0,
					"source" : [ "obj-27", 0 ]
				}

			}
, 			{
				"patchline" : 				{
					"color" : [ 0.074509803921569, 0.101960784313725, 0.376470588235294, 1.0 ],
					"destination" : [ "obj-8", 0 ],
					"midpoints" : [ 249.5, 273.0, 774.5, 273.0 ],
					"order" : 1,
					"source" : [ "obj-27", 0 ]
				}

			}
, 			{
				"patchline" : 				{
					"color" : [ 0.074509803921569, 0.101960784313725, 0.376470588235294, 1.0 ],
					"destination" : [ "obj-9", 0 ],
					"midpoints" : [ 249.5, 273.0, 699.5, 273.0 ],
					"order" : 2,
					"source" : [ "obj-27", 0 ]
				}

			}
, 			{
				"patchline" : 				{
					"destination" : [ "obj-25", 1 ],
					"midpoints" : [ 174.5, 205.5, 35.0, 205.5 ],
					"source" : [ "obj-28", 0 ]
				}

			}
, 			{
				"patchline" : 				{
					"destination" : [ "obj-18", 0 ],
					"order" : 1,
					"source" : [ "obj-31", 0 ]
				}

			}
, 			{
				"patchline" : 				{
					"destination" : [ "obj-19", 0 ],
					"midpoints" : [ 24.5, 74.5, 174.5, 74.5 ],
					"order" : 0,
					"source" : [ "obj-31", 0 ]
				}

			}
, 			{
				"patchline" : 				{
					"destination" : [ "obj-15", 0 ],
					"midpoints" : [ 24.5, 131.0, 174.5, 131.0 ],
					"order" : 0,
					"source" : [ "obj-32", 0 ]
				}

			}
, 			{
				"patchline" : 				{
					"destination" : [ "obj-17", 0 ],
					"order" : 1,
					"source" : [ "obj-32", 0 ]
				}

			}
, 			{
				"patchline" : 				{
					"destination" : [ "obj-27", 1 ],
					"order" : 0,
					"source" : [ "obj-34", 0 ]
				}

			}
, 			{
				"patchline" : 				{
					"destination" : [ "obj-28", 1 ],
					"order" : 1,
					"source" : [ "obj-34", 0 ]
				}

			}
 ],
		"dependency_cache" : [  ],
		"autosave" : 0
	}

}
